<svg width="64" height="64" viewBox="0 0 64 64" xmlns="http://www.w3.org/2000/svg" style="fill-rule:evenodd;clip-rule:evenodd;stroke-linejoin:round;stroke-miterlimit:1.41421;">
    <path d="M32,0c-8.691,0 -9.78,0.037 -13.194,0.193c-3.406,0.155 -5.732,0.696 -7.767,1.487c-2.105,0.818 -3.889,1.912 -5.668,3.691c-1.779,1.779 -2.873,3.564 -3.691,5.668c-0.791,2.035 -1.332,4.361 -1.488,7.767c-0.155,3.414 -0.192,4.503 -0.192,13.194c0,8.691 0.037,9.78 0.192,13.194c0.156,3.406 0.697,5.732 1.488,7.767c0.818,2.104 1.912,3.889 3.691,5.668c1.779,1.779 3.563,2.873 5.668,3.691c2.035,0.791 4.361,1.332 7.767,1.487c3.414,0.156 4.503,0.193 13.194,0.193c8.691,0 9.78,-0.037 13.194,-0.193c3.406,-0.155 5.732,-0.696 7.767,-1.487c2.104,-0.818 3.889,-1.912 5.668,-3.691c1.779,-1.779 2.873,-3.564 3.691,-5.668c0.791,-2.035 1.332,-4.361 1.487,-7.767c0.156,-3.414 0.193,-4.503 0.193,-13.194c0,-8.691 -0.037,-9.78 -0.193,-13.194c-0.155,-3.406 -0.696,-5.732 -1.487,-7.767c-0.818,-2.104 -1.912,-3.889 -3.691,-5.668c-1.779,-1.779 -3.564,-2.873 -5.668,-3.691c-2.035,-0.791 -4.361,-1.332 -7.767,-1.487c-3.414,-0.156 -4.503,-0.193 -13.194,-0.193l0,0Zm0,5.766c8.544,0 9.556,0.032 12.931,0.186c3.12,0.143 4.814,0.664 5.942,1.102c1.493,0.581 2.559,1.274 3.679,2.394c1.12,1.12 1.813,2.186 2.394,3.679c0.438,1.128 0.959,2.822 1.102,5.942c0.154,3.375 0.186,4.387 0.186,12.931c0,8.544 -0.032,9.556 -0.186,12.931c-0.143,3.12 -0.664,4.814 -1.102,5.942c-0.581,1.493 -1.274,2.559 -2.394,3.679c-1.12,1.12 -2.186,1.813 -3.679,2.394c-1.128,0.438 -2.822,0.959 -5.942,1.102c-3.374,0.154 -4.386,0.186 -12.931,0.186c-8.545,0 -9.557,-0.032 -12.931,-0.186c-3.12,-0.143 -4.814,-0.664 -5.942,-1.102c-1.493,-0.581 -2.559,-1.274 -3.679,-2.394c-1.12,-1.12 -1.813,-2.186 -2.394,-3.679c-0.438,-1.128 -0.959,-2.822 -1.102,-5.942c-0.154,-3.375 -0.186,-4.387 -0.186,-12.931c0,-8.544 0.032,-9.556 0.186,-12.931c0.143,-3.12 0.664,-4.814 1.102,-5.942c0.581,-1.493 1.274,-2.559 2.394,-3.679c1.12,-1.12 2.186,-1.813 3.679,-2.394c1.128,-0.438 2.822,-0.959 5.942,-1.102c3.375,-0.154 4.387,-0.186 12.931,-0.186l0,0Zm0,9.802c-9.075,0 -16.432,7.357 -16.432,16.432c0,9.075 7.357,16.432 16.432,16.432c9.075,0 16.432,-7.357 16.432,-16.432c0,-9.075 -7.357,-16.432 -16.432,-16.432l0,0Zm0,27.099c-5.891,0 -10.667,-4.776 -10.667,-10.667c0,-5.891 4.776,-10.667 10.667,-10.667c5.891,0 10.667,4.776 10.667,10.667c0,5.891 -4.776,10.667 -10.667,10.667Zm20.922,-27.749c0,2.121 -1.72,3.84 -3.84,3.84c-2.121,0 -3.84,-1.719 -3.84,-3.84c0,-2.12 1.719,-3.84 3.84,-3.84c2.12,0 3.84,1.72 3.84,3.84l0,0Z" fill="#000"/>
</svg>
