<svg width="64" height="64" viewBox="0 0 64 64" xmlns="http://www.w3.org/2000/svg"><path d="M14.53 62.588V21.313H.813v41.275H14.53zM7.672 15.675c4.784 0 7.76-3.17 7.76-7.131-.087-4.051-2.976-7.132-7.672-7.132C3.069 1.412 0 4.493 0 8.545c0 3.961 2.978 7.131 7.581 7.131h.089l.002-.001zm14.45 46.909h13.719V39.538c0-1.235.089-2.466.451-3.348.992-2.466 3.249-5.018 7.039-5.018 4.963 0 6.951 3.784 6.951 9.332v22.083H64V38.918c0-12.677-6.769-18.576-15.794-18.576-7.401 0-10.649 4.135-12.456 6.955h.092v-5.984h-13.72c.18 3.872 0 41.275 0 41.275v-.004z"/></svg>
