<svg viewBox="0 0 64 64" xmlns="http://www.w3.org/2000/svg" fill-rule="evenodd" clip-rule="evenodd" stroke-linejoin="round" stroke-miterlimit="1.414"><path d="M0 52.106c1.027.122 2.072.184 3.132.184a26.343 26.343 0 0 0 16.307-5.621c-5.746-.106-10.595-3.902-12.265-9.118a13.153 13.153 0 0 0 5.929-.225C7.096 36.12 2.571 30.813 2.571 24.451l.001-.165a13.076 13.076 0 0 0 5.947 1.642 13.126 13.126 0 0 1-5.841-10.929c0-2.406.648-4.662 1.778-6.601 6.476 7.944 16.151 13.171 27.064 13.719a13.178 13.178 0 0 1-.341-2.993c0-7.251 5.879-13.13 13.131-13.13 3.776 0 7.189 1.595 9.584 4.147a26.308 26.308 0 0 0 8.338-3.186 13.171 13.171 0 0 1-5.773 7.264A26.25 26.25 0 0 0 64 12.151a26.683 26.683 0 0 1-6.552 6.797c.025.563.038 1.13.038 1.699 0 17.351-13.207 37.359-37.358 37.359A37.163 37.163 0 0 1 0 52.106z"/></svg>