<svg viewBox="0 0 64 64" xmlns="http://www.w3.org/2000/svg" fill-rule="evenodd" clip-rule="evenodd" stroke-linejoin="round" stroke-miterlimit="1.414"><path d="M25.393 40.301l-.003-17.982 17.293 9.023-17.29 8.959zm37.968-21.097s-.625-4.41-2.544-6.352c-2.434-2.55-5.162-2.562-6.413-2.711-8.956-.648-22.39-.648-22.39-.648h-.028s-13.434 0-22.39.648c-1.251.149-3.978.161-6.413 2.711C1.264 14.794.64 19.204.64 19.204S0 24.383 0 29.562v4.856c0 5.179.64 10.358.64 10.358s.624 4.41 2.543 6.352c2.435 2.549 5.633 2.469 7.057 2.736 5.12.491 21.76.643 21.76.643s13.448-.02 22.404-.668c1.251-.149 3.979-.162 6.413-2.711 1.919-1.942 2.544-6.352 2.544-6.352S64 39.597 64 34.418v-4.856c0-5.179-.639-10.358-.639-10.358z"/></svg>